# xmcd CD database file
#
# Track frame offsets:
#	225
#	18420
#	33699
#	43767
#	68051
#	80386
#	94845
#	106465
#	117616
#	129726
#	150800
#	163729
#	185268
#	194687
#	215722
#	232996
#	249496
#	264513
#	277594
#	294269
#
# Disc length: 4051 seconds
#
# Revision: 2
# Processed by: cddbd v1.5.2PL0 Copyright (c) Steve Scherf et al.
# Submitted via: CDex 1.70beta2
#
DISCID=1a0fd014
DTITLE=Country zpěváci - Country Stodola
DYEAR=2000
DGENRE=Country
TTITLE0=Ranec plnej pisni
TTITLE1=Co dat sve lasce
TTITLE2=Kolaloka
TTITLE3=Kosmickej Vandr
TTITLE4=Kluci to taky nemaj lehky
TTITLE5=Barevny sal
TTITLE6=Z Pulcinskeho kostelicka
TTITLE7=Modlitba
TTITLE8=Laska je kouzelna vec
TTITLE9=Odpocin si Saro
TTITLE10=Pisen tulaka
TTITLE11=Buraky
TTITLE12=Ruty suty arizona texas
TTITLE13=Divka z Cheyenne
TTITLE14=Lasko, mne ubyva sil
TTITLE15=Charlie and Fantom
TTITLE16=Narek prevoznika
TTITLE17=Skaredy holky
TTITLE18=Mas chut majoranky
TTITLE19=Ne a nebudem se zenit
EXTD=YEAR: 2000
EXTT0=
EXTT1=
EXTT2=
EXTT3=
EXTT4=
EXTT5=
EXTT6=
EXTT7=
EXTT8=
EXTT9=
EXTT10=
EXTT11=
EXTT12=
EXTT13=
EXTT14=
EXTT15=
EXTT16=
EXTT17=
EXTT18=
EXTT19=
PLAYORDER=
